#!OML:ASF E:\motion texture\Top Level 1\Subject 1\Session 1\male.ASF
:FULLY-SPECIFIED
:DEGREES
338
root -13.3762 18.2571 2.969 450.581 -82.0405 -446.358
lowerback -1.83678 -0.669414 7.08786
upperback -1.85931 -1.15876 6.0878
thorax -0.89588 -0.713619 2.3075
lowerneck -8.98512 -5.64747 -6.84737
upperneck 19.3185 -8.51866 7.23509
head 8.04716 -4.03918 2.66715
rclavicle -7.46685e-015 1.90833e-014
rhumerus 27.5914 4.48937 -44.7164
rradius 122.128
rwrist 0.491179
rhand -19.5282 -24.8132
rfingers 7.12502
rthumb 6.79528 -54.6842
lclavicle -7.46685e-015 1.90833e-014
lhumerus 26.14 -17.4059 56.8918
lradius 116.8
lwrist -18.3737
lhand -25.7884 23.6587
lfingers 7.12502
lthumb 0.750149 53.6372
rfemur -8.65207 0.0964894 30.4316
rtibia 15.7834
rfoot -7.07096 -7.27536
rtoes 18.6501
lfemur -22.496 2.68611 -6.86695
ltibia 59.2911
lfoot -3.68242 -0.270567
ltoes -15.1489
339
root -13.5004 18.2595 2.95159 451.479 -81.9572 -447.223
lowerback -1.83352 -0.617957 7.21072
upperback -1.87856 -1.08923 6.04582
thorax -0.920167 -0.681121 2.1969
lowerneck -8.98967 -5.61237 -6.85331
upperneck 19.3314 -8.45351 7.1685
head 8.04451 -4.01406 2.65313
rclavicle 2.82336e-015 -1.11319e-014
rhumerus 26.772 4.91534 -44.9222
rradius 121.583
rwrist 0.711092
rhand -19.1796 -24.5964
rfingers 7.12502
rthumb 7.13178 -54.4562
lclavicle 2.82336e-015 -1.11319e-014
lhumerus 24.9482 -17.5616 57.3994
lradius 116.539
lwrist -18.8118
lhand -25.6278 23.4576
lfingers 7.12502
lthumb 0.9052 53.4354
rfemur -8.0648 0.170842 30.6221
rtibia 15.4603
rfoot -7.20163 -7.23685
rtoes 18.7792
lfemur -23.1024 2.88313 -6.76009
ltibia 58.5197
lfoot -4.40856 -0.118777
ltoes -15.1166
340
root -13.6239 18.261 2.93523 452.475 -81.8726 -448.167
lowerback -1.82285 -0.561272 7.3396
upperback -1.91072 -1.01095 6.00279
thorax -0.96165 -0.645031 2.08234
lowerneck -8.99617 -5.57974 -6.82857
upperneck 19.3416 -8.38675 7.05731
head 8.03798 -3.98978 2.61939
rclavicle 2.48481e-015 -2.14687e-014
rhumerus 25.8511 5.37753 -45.1727
rradius 120.985
rwrist 0.978008
rhand -18.8046 -24.3358
rfingers 7.12502
rthumb 7.49378 -54.183
lclavicle 2.48481e-015 -2.14687e-014
lhumerus 23.6489 -17.7185 57.9665
lradius 116.208
lwrist -19.2473
lhand -25.5053 23.2386
lfingers 7.12502
lthumb 1.02359 53.2159
rfemur -7.52095 0.248123 30.8107
rtibia 15.181
rfoot -7.34304 -7.19407
rtoes 18.8651
lfemur -23.6923 3.08632 -6.65709
ltibia 57.6418
lfoot -5.10671 0.108037
ltoes -15.1484
341
root -13.7466 18.2616 2.91995 453.541 -81.7876 -449.161
lowerback -1.81936 -0.500428 7.4711
upperback -1.95118 -0.927389 5.95852
thorax -1.00723 -0.606729 1.96509
lowerneck -8.9986 -5.54352 -6.77483
upperneck 19.3311 -8.31044 6.91244
head 8.02049 -3.96186 2.57093
rclavicle 1.55922e-015 -7.95139e-016
rhumerus 24.8329 5.87069 -45.4673
rradius 120.344
rwrist 1.25849
rhand -18.3837 -24.0634
rfingers 7.12502
rthumb 7.90001 -53.8958
lclavicle 1.55922e-015 -7.95139e-016
lhumerus 22.2426 -17.8728 58.5886
lradius 115.813
lwrist -19.6425
lhand -25.411 23.0193
lfingers 7.12502
lthumb 1.11462 52.9962
rfemur -7.02616 0.327664 30.9947
rtibia 14.9465
rfoot -7.49799 -7.15105
rtoes 18.8917
lfemur -24.2702 3.28961 -6.56043
ltibia 56.6636
lfoot -5.78495 0.417984
ltoes -15.3392
342
root -13.8684 18.2614 2.90571 454.668 -81.7072 -450.19
lowerback -1.8279 -0.437298 7.59765
upperback -1.99828 -0.841566 5.91143
thorax -1.05237 -0.567472 1.84759
lowerneck -9.0081 -5.5004 -6.71392
upperneck 19.2998 -8.22306 6.76869
head 7.99646 -3.92771 2.52275
rclavicle -1.59649e-015 -1.11319e-014
rhumerus 23.7254 6.39572 -45.812
rradius 119.658
rwrist 1.52648
rhand -17.9255 -23.7896
rfingers 7.12502
rthumb 8.34223 -53.6049
lclavicle -1.59649e-015 -1.11319e-014
lhumerus 20.7381 -18.0208 59.2629
lradius 115.344
lwrist -19.9701
lhand -25.3477 22.812
lfingers 7.12502
lthumb 1.17576 52.7885
rfemur -6.585 0.408057 31.1673
rtibia 14.7587
rfoot -7.669 -7.10536
rtoes 18.8696
lfemur -24.8387 3.48832 -6.47598
ltibia 55.5869
lfoot -6.41917 0.806352
ltoes -15.6764
343
root -13.9899 18.2606 2.89246 455.861 -81.6302 -451.265
lowerback -1.84058 -0.373731 7.71881
upperback -2.05636 -0.754655 5.86143
thorax -1.10606 -0.52814 1.73016
lowerneck -9.0088 -5.45106 -6.64992
upperneck 19.2497 -8.128 6.63218
head 7.96443 -3.88928 2.47761
rclavicle -9.74666e-015 -4.77083e-015
rhumerus 22.531 6.95874 -46.2121
rradius 118.929
rwrist 1.7545
rhand -17.4022 -23.5413
rfingers 7.12502
rthumb 8.8472 -53.3358
lclavicle -9.74666e-015 -4.77083e-015
lhumerus 19.1307 -18.1626 59.9884
lradius 114.802
lwrist -20.2212
lhand -25.3086 22.6228
lfingers 7.12502
lthumb 1.21355 52.5991
rfemur -6.19126 0.491692 31.3287
rtibia 14.6157
rfoot -7.86037 -7.05987
rtoes 18.8342
lfemur -25.3874 3.67757 -6.40028
ltibia 54.4084
lfoot -7.0068 1.274
ltoes -16.115
344
root -14.1112 18.2593 2.88023 457.12 -81.558 -452.384
lowerback -1.85943 -0.308744 7.82982
upperback -2.12223 -0.665815 5.80913
thorax -1.16374 -0.488099 1.61598
lowerneck -9.0146 -5.39824 -6.58906
upperneck 19.1883 -8.02956 6.51118
head 7.93035 -3.84787 2.43838
rclavicle 1.69588e-015 -4.77083e-014
rhumerus 21.2565 7.55038 -46.6634
rradius 118.146
rwrist 1.93484
rhand -16.8503 -23.3284
rfingers 7.12502
rthumb 9.37982 -53.0997
lclavicle 1.69588e-015 -4.77083e-014
lhumerus 17.4283 -18.2927 60.7699
lradius 114.18
lwrist -20.3764
lhand -25.3116 22.4277
lfingers 7.12502
lthumb 1.21061 52.404
rfemur -5.84136 0.577692 31.4744
rtibia 14.5089
rfoot -8.06809 -7.01166
rtoes 18.8143
lfemur -25.9132 3.85045 -6.33447
ltibia 53.1285
lfoot -7.53525 1.81583
ltoes -16.5309
345
root -14.2326 18.2575 2.86891 458.437 -81.4901 -453.547
lowerback -1.8906 -0.242278 7.92966
upperback -2.18304 -0.57676 5.75459
thorax -1.20864 -0.447495 1.50541
lowerneck -9.04886 -5.34474 -6.54545
upperneck 19.1205 -7.93176 6.42424
head 7.90165 -3.80403 2.41246
rclavicle 2.65253e-015 -2.38542e-014
rhumerus 19.9195 8.15495 -47.1686
rradius 117.302
rwrist 2.06891
rhand -16.3004 -23.1479
rfingers 7.12502
rthumb 9.91038 -52.8947
lclavicle 2.65253e-015 -2.38542e-014
lhumerus 15.6645 -18.3982 61.5994
lradius 113.464
lwrist -20.4485
lhand -25.33 22.296
lfingers 7.12502
lthumb 1.19288 52.2724
rfemur -5.52461 0.670223 31.6045
rtibia 14.4289
rfoot -8.28396 -6.9623
rtoes 18.7755
lfemur -26.4072 3.99995 -6.27518
ltibia 51.7457
lfoot -8.00531 2.4237
ltoes -16.867
346
root -14.3539 18.255 2.85837 459.745 -81.4296 -454.682
lowerback -1.92489 -0.174371 8.01425
upperback -2.24988 -0.485343 5.69619
thorax -1.25741 -0.405766 1.39933
lowerneck -9.08817 -5.2955 -6.50281
upperneck 19.0402 -7.84251 6.35685
head 7.87132 -3.7624 2.39213
rclavicle 1.00883e-014 -2.78299e-014
rhumerus 18.5074 8.77065 -47.7272
rradius 116.379
rwrist 2.1872
rhand -15.8002 -22.9957
rfingers 7.12502
rthumb 10.3929 -52.7189
lclavicle 1.00883e-014 -2.78299e-014
lhumerus 13.8363 -18.4849 62.4852
lradius 112.656
lwrist -20.4011
lhand -25.3261 22.1967
lfingers 7.12502
lthumb 1.19662 52.1731
rfemur -5.23719 0.765303 31.7166
rtibia 14.3632
rfoot -8.5018 -6.91856
rtoes 18.712
lfemur -26.8743 4.11314 -6.22429
ltibia 50.2621
lfoot -8.41624 3.08182
ltoes -17.0784
347
root -14.4752 18.2521 2.84859 461.029 -81.3752 -455.78
lowerback -1.96416 -0.104324 8.08528
upperback -2.31488 -0.391537 5.63424
thorax -1.30084 -0.362506 1.297
lowerneck -9.14999 -5.2533 -6.45612
upperneck 18.95 -7.76413 6.30327
head 7.84314 -3.72367 2.37399
rclavicle 7.3364e-015 -1.98785e-014
rhumerus 17.0276 9.37984 -48.3426
rradius 115.365
rwrist 2.30517
rhand -15.3946 -22.8623
rfingers 7.12502
rthumb 10.7841 -52.5654
lclavicle 7.3364e-015 -1.98785e-014
lhumerus 11.9529 -18.5382 63.4285
lradius 111.751
lwrist -20.2516
lhand -25.303 22.0983
lfingers 7.12502
lthumb 1.21888 52.0745
rfemur -4.97101 0.864411 31.8125
rtibia 14.305
rfoot -8.7174 -6.87984
rtoes 18.6022
lfemur -27.3084 4.18359 -6.17807
ltibia 48.6776
lfoot -8.76483 3.78019
ltoes -17.1668
348
root -14.5966 18.2484 2.8396 462.288 -81.3267 -456.843
lowerback -2.01752 -0.0327937 8.14561
upperback -2.37133 -0.29794 5.56799
thorax -1.32699 -0.318565 1.19592
lowerneck -9.22795 -5.21623 -6.40715
upperneck 18.8399 -7.69408 6.26827
head 7.81259 -3.68652 2.36039
rclavicle -4.9075e-016 -4.05521e-014
rhumerus 15.4889 9.966 -49.0245
rradius 114.242
rwrist 2.42627
rhand -15.0875 -22.7413
rfingers 7.12502
rthumb 11.0804 -52.4288
lclavicle -4.9075e-016 -4.05521e-014
lhumerus 10.0358 -18.5391 64.4268
lradius 110.746
lwrist -19.9791
lhand -25.2177 22.0026
lfingers 7.12502
lthumb 1.30127 51.9784
rfemur -4.7201 0.96125 31.8942
rtibia 14.2522
rfoot -8.92519 -6.84188
rtoes 18.4042
lfemur -27.7054 4.20964 -6.13452
ltibia 46.9967
lfoot -9.05227 4.50157
ltoes -17.1805
